<?xml version="1.0" encoding="utf-8"?>
<!-- Generator: Adobe Illustrator 16.0.0, SVG Export Plug-In . SVG Version: 6.00 Build 0)  -->
<!DOCTYPE svg PUBLIC "-//W3C//DTD SVG 1.1//EN" "http://www.w3.org/Graphics/SVG/1.1/DTD/svg11.dtd">
<svg version="1.1" id="Layer_1" xmlns="http://www.w3.org/2000/svg" xmlns:xlink="http://www.w3.org/1999/xlink" x="0px" y="0px"
	 width="2000px" height="2000px" viewBox="0 0 2000 2000" enable-background="new 0 0 2000 2000" xml:space="preserve">
<g>
	<g>
		<polygon fill="#A4A6A9" stroke="#211F1F" stroke-width="7.1047" stroke-linejoin="round" stroke-miterlimit="10" points="
			999.999,1122.451 999.999,1123.008 1058.033,1123.008 1058.033,1088.787 		"/>
		<polygon fill="#A4A6A9" stroke="#211F1F" stroke-width="7.1047" stroke-linejoin="round" stroke-miterlimit="10" points="
			999.999,1122.451 941.966,1088.787 941.966,1123.008 999.999,1123.008 		"/>
		<polygon fill="#FFFFFF" stroke="#211F1F" stroke-width="7.1047" stroke-linejoin="round" stroke-miterlimit="10" points="
			941.966,1088.787 960.389,1010.41 909.211,1003.332 881.032,1053.443 941.966,1088.787 		"/>
		<polygon fill="#D0D1D2" stroke="#211F1F" stroke-width="7.1047" stroke-linejoin="round" stroke-miterlimit="10" points="
			881.032,1053.443 881.032,1053.443 881.032,1123.008 941.966,1123.008 941.966,1088.787 		"/>
		<polygon fill="#2BA5DE" stroke="#211F1F" stroke-width="7.1047" stroke-linejoin="round" stroke-miterlimit="10" points="
			941.966,1123.008 941.966,1157.32 999.999,1123.008 		"/>
		<polygon fill="#2BA5DE" stroke="#211F1F" stroke-width="7.1047" stroke-linejoin="round" stroke-miterlimit="10" points="
			1058.033,1157.32 1058.033,1123.008 999.999,1123.008 		"/>
		<polygon fill="#D0D1D2" stroke="#211F1F" stroke-width="7.1047" stroke-linejoin="round" stroke-miterlimit="10" points="
			1058.033,1123.008 1118.967,1123.008 1118.967,1053.443 1118.967,1053.443 1058.033,1088.787 		"/>
		<polygon fill="#2076B8" stroke="#211F1F" stroke-width="7.1047" stroke-linejoin="round" stroke-miterlimit="10" points="
			941.966,1157.32 941.966,1157.32 999.999,1193.352 999.999,1123.008 		"/>
		<polygon fill="#FFFFFF" stroke="#211F1F" stroke-width="7.1047" stroke-linejoin="round" stroke-miterlimit="10" points="
			999.999,1122.451 1058.033,1088.787 1058.033,1088.787 999.999,1052.732 		"/>
		<polygon fill="#95D5E4" stroke="#211F1F" stroke-width="7.1047" stroke-linejoin="round" stroke-miterlimit="10" points="
			999.999,1052.732 1058.033,1088.787 1039.609,1010.41 999.999,1015.891 		"/>
		<polygon fill="#FFFFFF" stroke="#211F1F" stroke-width="7.1047" stroke-linejoin="round" stroke-miterlimit="10" points="
			1000.008,841.885 967.787,978.898 960.381,1010.408 909.21,1003.34 931.021,964.566 		"/>
		<polygon fill="#FFFFFF" stroke="#211F1F" stroke-width="7.1047" stroke-linejoin="round" stroke-miterlimit="10" points="
			941.966,1088.787 941.966,1088.787 999.999,1122.451 999.999,1052.732 		"/>
		<polygon fill="#95D5E4" stroke="#211F1F" stroke-width="7.1047" stroke-linejoin="round" stroke-miterlimit="10" points="
			1000.008,841.885 1000.008,1015.895 960.381,1010.408 967.787,978.898 		"/>
		<polygon fill="#95D5E4" stroke="#211F1F" stroke-width="7.1047" stroke-linejoin="round" stroke-miterlimit="10" points="
			999.999,1015.891 960.389,1010.41 941.966,1088.787 999.999,1052.732 		"/>
		<polygon fill="#2076B8" stroke="#211F1F" stroke-width="7.1047" stroke-linejoin="round" stroke-miterlimit="10" points="
			999.999,1193.352 1058.033,1157.32 1058.033,1157.32 999.999,1123.008 		"/>
		<polygon fill="#95D5E4" stroke="#211F1F" stroke-width="7.1047" stroke-linejoin="round" stroke-miterlimit="10" points="
			1058.033,1123.008 1058.033,1157.32 1118.967,1193.352 1118.967,1123.008 		"/>
		<polygon fill="#FFFFFF" stroke="#211F1F" stroke-width="7.1047" stroke-linejoin="round" stroke-miterlimit="10" points="
			1090.787,1003.34 1039.615,1010.408 1032.209,978.898 1000.008,841.885 1068.994,964.566 		"/>
		<polygon fill="#2076B8" stroke="#211F1F" stroke-width="7.1047" stroke-linejoin="round" stroke-miterlimit="10" points="
			999.999,1263.078 1118.967,1193.352 999.999,1193.352 		"/>
		<polygon fill="#95D5E4" stroke="#211F1F" stroke-width="7.1047" stroke-linejoin="round" stroke-miterlimit="10" points="
			941.966,1157.32 941.966,1157.32 881.032,1193.352 999.999,1193.352 		"/>
		<polygon fill="#2076B8" stroke="#211F1F" stroke-width="7.1047" stroke-linejoin="round" stroke-miterlimit="10" points="
			881.032,1193.352 999.999,1263.078 999.999,1193.352 		"/>
		<polygon fill="#95D5E4" stroke="#211F1F" stroke-width="7.1047" stroke-linejoin="round" stroke-miterlimit="10" points="
			1058.033,1157.32 999.999,1193.352 1118.967,1193.352 1058.033,1157.32 		"/>
		<polygon fill="#2BA5DE" stroke="#211F1F" stroke-width="7.1047" stroke-linejoin="round" stroke-miterlimit="10" points="
			1118.967,1193.352 1159.764,1123.008 1118.967,1123.008 		"/>
		<polygon fill="#F2F2F2" stroke="#211F1F" stroke-width="7.1047" stroke-linejoin="round" stroke-miterlimit="10" points="
			1118.967,1053.443 1118.967,1053.443 1118.967,1123.008 1159.764,1123.008 1241.238,982.52 		"/>
		<path fill="#2BA5DE" stroke="#211F1F" stroke-width="7.1047" stroke-linejoin="round" stroke-miterlimit="10" d="M931.013,964.56
			c-20.923-11.789-38.536-28.755-51.07-49.188l-0.563,1.007l0.563-1.007c-13.125-21.393-20.702-46.555-20.702-73.492h-20.997
			L758.76,982.52l150.451,20.812L931.013,964.56z"/>
		<path fill="#2076B8" stroke="#211F1F" stroke-width="7.1047" stroke-linejoin="round" stroke-miterlimit="10" d="M999.999,701.122
			c77.738,0,140.759,63.019,140.759,140.758h20.996l-161.755-286.21l-161.754,286.21h20.997
			C859.241,764.141,922.26,701.122,999.999,701.122z"/>
		<polygon fill="#FFFFFF" stroke="#211F1F" stroke-width="7.1047" stroke-linejoin="round" stroke-miterlimit="10" points="
			1039.609,1010.41 1058.033,1088.787 1058.033,1088.787 1118.967,1053.443 1090.787,1003.332 		"/>
		<path fill="#2BA5DE" stroke="#211F1F" stroke-width="7.1047" stroke-linejoin="round" stroke-miterlimit="10" d="
			M1120.057,915.372l0.562,1.007L1120.057,915.372c-12.535,20.434-30.148,37.399-51.072,49.188l21.803,38.772l150.451-20.812
			l-79.484-140.641h-20.996C1140.758,868.816,1133.18,893.979,1120.057,915.372z"/>
		<polygon fill="#5B5A5D" stroke="#211F1F" stroke-width="7.1047" stroke-linejoin="round" stroke-miterlimit="10" points="
			1118.967,1053.443 1241.238,982.52 1090.787,1003.332 		"/>
		<polygon fill="#2BA5DE" stroke="#211F1F" stroke-width="7.1047" stroke-linejoin="round" stroke-miterlimit="10" points="
			840.235,1123.008 881.032,1193.352 881.032,1123.008 		"/>
		<polygon fill="#95D5E4" stroke="#211F1F" stroke-width="7.1047" stroke-linejoin="round" stroke-miterlimit="10" points="
			941.966,1123.008 881.032,1123.008 881.032,1193.352 941.966,1157.32 		"/>
		<polygon fill="#F2F2F2" stroke="#211F1F" stroke-width="7.1047" stroke-linejoin="round" stroke-miterlimit="10" points="
			881.032,1053.443 881.032,1053.443 758.76,982.52 840.235,1123.008 881.032,1123.008 		"/>
		<polygon fill="#5B5A5D" stroke="#211F1F" stroke-width="7.1047" stroke-linejoin="round" stroke-miterlimit="10" points="
			909.211,1003.332 758.76,982.52 881.032,1053.443 		"/>
		<polygon fill="#95D5E4" stroke="#211F1F" stroke-width="7.1047" stroke-linejoin="round" stroke-miterlimit="10" points="
			1039.615,1010.408 1000.008,1015.895 1000.008,841.885 1032.209,978.898 		"/>
		<linearGradient id="SVGID_1_" gradientUnits="userSpaceOnUse" x1="859.2407" y1="771.5005" x2="999.9985" y2="771.5005">
			<stop  offset="0" style="stop-color:#F6ED47"/>
			<stop  offset="0.0607" style="stop-color:#F8DC35"/>
			<stop  offset="0.1311" style="stop-color:#F9CF26"/>
			<stop  offset="0.2036" style="stop-color:#FAC81C"/>
			<stop  offset="0.2809" style="stop-color:#FAC519"/>
			<stop  offset="0.6685" style="stop-color:#F08E43"/>
			<stop  offset="0.8876" style="stop-color:#EB683A"/>
			<stop  offset="1" style="stop-color:#E63F39"/>
		</linearGradient>
		<path fill="url(#SVGID_1_)" stroke="#211F1F" stroke-width="7.1047" stroke-linejoin="round" stroke-miterlimit="10" d="
			M999.999,701.122c-77.738,0-140.758,63.019-140.758,140.758h61.883L999.999,701.122z"/>
		<linearGradient id="SVGID_2_" gradientUnits="userSpaceOnUse" x1="859.2407" y1="878.6255" x2="921.124" y2="878.6255">
			<stop  offset="0" style="stop-color:#F6ED47"/>
			<stop  offset="0.0607" style="stop-color:#F8DC35"/>
			<stop  offset="0.1311" style="stop-color:#F9CF26"/>
			<stop  offset="0.2036" style="stop-color:#FAC81C"/>
			<stop  offset="0.2809" style="stop-color:#FAC519"/>
			<stop  offset="0.6685" style="stop-color:#F08E43"/>
			<stop  offset="0.8876" style="stop-color:#EB683A"/>
			<stop  offset="1" style="stop-color:#E63F39"/>
		</linearGradient>
		<path fill="url(#SVGID_2_)" stroke="#211F1F" stroke-width="7.1047" stroke-linejoin="round" stroke-miterlimit="10" d="
			M859.241,841.879c0,26.937,7.577,52.1,20.702,73.492l41.182-73.492H859.241z"/>
		<linearGradient id="SVGID_3_" gradientUnits="userSpaceOnUse" x1="879.9424" y1="903.2197" x2="999.9985" y2="903.2197">
			<stop  offset="0" style="stop-color:#F6ED47"/>
			<stop  offset="0.0607" style="stop-color:#F8DC35"/>
			<stop  offset="0.1311" style="stop-color:#F9CF26"/>
			<stop  offset="0.2036" style="stop-color:#FAC81C"/>
			<stop  offset="0.2809" style="stop-color:#FAC519"/>
			<stop  offset="0.6685" style="stop-color:#F08E43"/>
			<stop  offset="0.8876" style="stop-color:#EB683A"/>
			<stop  offset="1" style="stop-color:#E63F39"/>
		</linearGradient>
		<path fill="url(#SVGID_3_)" stroke="#211F1F" stroke-width="7.1047" stroke-linejoin="round" stroke-miterlimit="10" d="
			M921.124,841.879l-41.182,73.492c12.535,20.434,30.147,37.399,51.07,49.188l68.986-122.681H921.124z"/>
		<linearGradient id="SVGID_4_" gradientUnits="userSpaceOnUse" x1="921.124" y1="771.5005" x2="1078.875" y2="771.5005">
			<stop  offset="0" style="stop-color:#F6ED47"/>
			<stop  offset="0.0607" style="stop-color:#F8DC35"/>
			<stop  offset="0.1311" style="stop-color:#F9CF26"/>
			<stop  offset="0.2036" style="stop-color:#FAC81C"/>
			<stop  offset="0.2809" style="stop-color:#FAC519"/>
			<stop  offset="0.6685" style="stop-color:#F08E43"/>
			<stop  offset="0.8876" style="stop-color:#EB683A"/>
			<stop  offset="1" style="stop-color:#E63F39"/>
		</linearGradient>
		<polygon fill="url(#SVGID_4_)" stroke="#211F1F" stroke-width="7.1047" stroke-linejoin="round" stroke-miterlimit="10" points="
			999.999,841.879 1078.875,841.879 999.999,701.122 921.124,841.879 		"/>
		<linearGradient id="SVGID_5_" gradientUnits="userSpaceOnUse" x1="1078.875" y1="878.6255" x2="1140.7578" y2="878.6255">
			<stop  offset="0" style="stop-color:#F6ED47"/>
			<stop  offset="0.0607" style="stop-color:#F8DC35"/>
			<stop  offset="0.1311" style="stop-color:#F9CF26"/>
			<stop  offset="0.2036" style="stop-color:#FAC81C"/>
			<stop  offset="0.2809" style="stop-color:#FAC519"/>
			<stop  offset="0.6685" style="stop-color:#F08E43"/>
			<stop  offset="0.8876" style="stop-color:#EB683A"/>
			<stop  offset="1" style="stop-color:#E63F39"/>
		</linearGradient>
		<path fill="url(#SVGID_5_)" stroke="#211F1F" stroke-width="7.1047" stroke-linejoin="round" stroke-miterlimit="10" d="
			M1120.057,915.372c13.123-21.393,20.701-46.555,20.701-73.492h-61.883L1120.057,915.372z"/>
		<linearGradient id="SVGID_6_" gradientUnits="userSpaceOnUse" x1="999.9985" y1="903.2197" x2="1120.0566" y2="903.2197">
			<stop  offset="0" style="stop-color:#F6ED47"/>
			<stop  offset="0.0607" style="stop-color:#F8DC35"/>
			<stop  offset="0.1311" style="stop-color:#F9CF26"/>
			<stop  offset="0.2036" style="stop-color:#FAC81C"/>
			<stop  offset="0.2809" style="stop-color:#FAC519"/>
			<stop  offset="0.6685" style="stop-color:#F08E43"/>
			<stop  offset="0.8876" style="stop-color:#EB683A"/>
			<stop  offset="1" style="stop-color:#E63F39"/>
		</linearGradient>
		<path fill="url(#SVGID_6_)" stroke="#211F1F" stroke-width="7.1047" stroke-linejoin="round" stroke-miterlimit="10" d="
			M999.999,841.879l68.986,122.681c20.924-11.789,38.537-28.755,51.072-49.188l-41.182-73.492H999.999z"/>
		<linearGradient id="SVGID_7_" gradientUnits="userSpaceOnUse" x1="999.9985" y1="771.5005" x2="1140.7578" y2="771.5005">
			<stop  offset="0" style="stop-color:#F6ED47"/>
			<stop  offset="0.0607" style="stop-color:#F8DC35"/>
			<stop  offset="0.1311" style="stop-color:#F9CF26"/>
			<stop  offset="0.2036" style="stop-color:#FAC81C"/>
			<stop  offset="0.2809" style="stop-color:#FAC519"/>
			<stop  offset="0.6685" style="stop-color:#F08E43"/>
			<stop  offset="0.8876" style="stop-color:#EB683A"/>
			<stop  offset="1" style="stop-color:#E63F39"/>
		</linearGradient>
		<path fill="url(#SVGID_7_)" stroke="#211F1F" stroke-width="7.1047" stroke-linejoin="round" stroke-miterlimit="10" d="
			M1140.758,841.879c0-77.739-63.021-140.758-140.759-140.758l78.876,140.758H1140.758z"/>
	</g>
	<g>
		<path fill="#211F1F" d="M490.208,1390.576l-10.535,23.906h-11.481l42.413-94.549h11.211l42.277,94.549h-11.751l-10.536-23.906
			H490.208z M515.872,1332.225l-21.071,47.951h42.412L515.872,1332.225z"/>
		<path fill="#211F1F" d="M658.635,1328.309l-4.592,10.129c-8.51-5.672-18.505-7.969-26.069-7.969
			c-12.156,0-20.125,4.592-20.125,12.562c0,24.312,53.218,11.615,53.083,45.924c0,15.803-13.913,25.934-34.173,25.934
			c-13.777,0-27.285-5.943-36.199-14.453l4.862-9.725c8.78,8.51,20.801,13.371,31.472,13.371c13.642,0,22.152-5.537,22.152-14.588
			c0.135-24.852-53.083-11.615-53.083-45.518c0-14.857,13.102-24.449,32.687-24.449
			C639.59,1319.527,650.801,1323.039,658.635,1328.309z"/>
		<path fill="#211F1F" d="M734.538,1330.334v84.148h-10.806v-84.148h-30.796v-10.4h72.533v10.4H734.538z"/>
		<path fill="#211F1F" d="M846.101,1384.361c-2.026,0.137-4.188,0.271-6.349,0.271h-25.123v29.85h-10.806v-94.549h35.929
			c23.638,0,37.28,11.615,37.28,31.742c0,15.668-7.564,26.203-21.206,30.66l22.151,32.146h-12.292L846.101,1384.361z
			 M839.752,1374.232c17.154,0,26.879-7.564,26.879-22.287c0-14.318-9.725-21.611-26.879-21.611h-25.123v43.898H839.752z"/>
		<path fill="#211F1F" d="M932.403,1390.576l-10.535,23.906h-11.481l42.412-94.549h11.211l42.277,94.549h-11.751L984,1390.576
			H932.403z M958.067,1332.225l-21.071,47.951h42.412L958.067,1332.225z"/>
		<path fill="#211F1F" d="M1096.102,1404.217v10.266h-52.273v-94.549h10.807v84.283H1096.102z"/>
		<path fill="#211F1F" d="M1194.428,1328.309l-4.592,10.129c-8.51-5.672-18.506-7.969-26.068-7.969
			c-12.158,0-20.127,4.592-20.127,12.562c0,24.312,53.219,11.615,53.084,45.924c0,15.803-13.912,25.934-34.174,25.934
			c-13.777,0-27.283-5.943-36.199-14.453l4.863-9.725c8.779,8.51,20.801,13.371,31.471,13.371c13.643,0,22.152-5.537,22.152-14.588
			c0.135-24.852-53.082-11.615-53.082-45.518c0-14.857,13.102-24.449,32.686-24.449
			C1175.383,1319.527,1186.594,1323.039,1194.428,1328.309z"/>
		<path fill="#211F1F" d="M1309.367,1414.482v-41.602h-57v41.602h-10.807v-94.549h10.807v42.682h57v-42.682h10.805v94.549H1309.367z
			"/>
		<path fill="#211F1F" d="M1371.49,1414.482v-94.549h10.807v94.549H1371.49z"/>
		<path fill="#211F1F" d="M1469.143,1319.934c23.367,0,36.875,11.615,36.875,31.742c0,20.936-13.508,32.957-36.875,32.957h-24.719
			v29.85h-10.805v-94.549H1469.143z M1444.424,1374.232h24.312c17.02,0,26.881-7.564,26.881-22.287
			c0-14.318-9.861-21.611-26.881-21.611h-24.312V1374.232z"/>
	</g>
</g>
</svg>
